<mxfile host="app.diagrams.net" modified="2020-12-23T09:24:10.139Z" agent="5.0 (Windows NT 10.0; Win64; x64) AppleWebKit/537.36 (KHTML, like Gecko) Chrome/87.0.4280.88 Safari/537.36" etag="4IoqKrOnE1Z3AfOuhZha" version="14.1.1" type="github">
  <diagram id="KRyvuwBQjRRn72fbIVl8" name="Page-1">
    <mxGraphModel dx="1422" dy="762" grid="1" gridSize="10" guides="1" tooltips="1" connect="1" arrows="1" fold="1" page="1" pageScale="1" pageWidth="827" pageHeight="1169" math="0" shadow="0">
      <root>
        <mxCell id="0" />
        <mxCell id="1" parent="0" />
        <mxCell id="gDZjHXR-zEzYqG8X9dRS-1" value="" style="rounded=0;whiteSpace=wrap;html=1;" vertex="1" parent="1">
          <mxGeometry x="150" y="220" width="610" height="420" as="geometry" />
        </mxCell>
        <mxCell id="gDZjHXR-zEzYqG8X9dRS-2" value="Excel" style="text;html=1;strokeColor=none;fillColor=none;align=center;verticalAlign=middle;whiteSpace=wrap;rounded=0;" vertex="1" parent="1">
          <mxGeometry x="150" y="200" width="50" height="20" as="geometry" />
        </mxCell>
        <mxCell id="gDZjHXR-zEzYqG8X9dRS-3" value="" style="shape=mxgraph.bpmn.user_task;html=1;outlineConnect=0;" vertex="1" parent="1">
          <mxGeometry x="150" y="220" width="240" height="290" as="geometry" />
        </mxCell>
        <mxCell id="gDZjHXR-zEzYqG8X9dRS-4" value="" style="shape=mxgraph.bpmn.shape;html=1;verticalLabelPosition=bottom;labelBackgroundColor=#ffffff;verticalAlign=top;align=center;perimeter=ellipsePerimeter;outlineConnect=0;outline=eventInt;symbol=timer;" vertex="1" parent="1">
          <mxGeometry x="530" y="220" width="230" height="210" as="geometry" />
        </mxCell>
      </root>
    </mxGraphModel>
  </diagram>
</mxfile>
